<?xml version="1.0" encoding="UTF-8"?>
<!-- Generated by Pixelmator Pro 3.5 -->
<svg width="210" height="210" viewBox="0 0 210 210" xmlns="http://www.w3.org/2000/svg">
    <path id="Rounded-Rectangle" fill="#ffffff" fill-rule="evenodd" stroke="none" d="M 0 170 C -0 192.091385 17.908609 210 40 210 L 170 210 C 192.091385 210 210 192.091385 210 170 L 210 40 C 210 17.908615 192.091385 0 170 0 L 40 0 C 17.908609 0 0 17.908615 0 40 Z"/>
    <path id="Path" fill="#000000" fill-rule="evenodd" stroke="#000000" stroke-linecap="round" d="M 194.886993 79.161575 L 180.436005 83.235069 L 180.093994 83.276367 L 160.544006 82.590668 L 158.557007 99.060699 L 163.916 102.633499 L 164.360001 90.6138 L 165.307007 89.545998 L 171.951996 88.503502 L 173.244995 89.544701 L 174.464996 109.666397 L 184.809998 116.564102 L 185.819 90.611603 L 186.763 89.546402 L 193.328995 88.503799 L 194.623001 89.5383 L 196.951996 124.658997 L 206.376007 130.942596 L 205.755005 133 L 196.307007 133 L 195.188004 131.951599 L 194.787994 125.914001 L 186.895004 120.651703 L 186.457001 131.920898 L 185.337006 133 L 174.688004 133 L 173.569 131.945297 L 172.294006 110.916901 L 166.009003 106.726196 L 165.078995 131.918701 L 163.959 133 L 153.468994 133 L 152.356995 131.742493 L 156.166 100.163902 L 126.685997 80.508743 L 103.968002 93.718498 L 103.450996 111.6306 L 112.014999 109.9245 L 112.234001 109.902901 L 127.754997 109.902901 L 115.873001 92.574097 L 116.849998 90.816902 L 130.462006 91.458496 L 131.511993 92.378403 L 134.875 110.824005 L 133.772003 112.148399 L 132.014008 112.148399 L 145.104996 131.241608 L 144.181 133 L 134.013 133 L 132.891998 131.904205 L 132.677994 122.975204 L 113.595001 122.975204 L 113.595001 131.877197 L 112.473999 133 L 101.7444 133 L 100.623901 131.844803 L 101.128197 114.382797 L 90.6716 116.465897 L 91.255699 116.783699 L 96.780502 126.0065 L 96.415802 127.534698 L 88.008499 132.827805 L 87.019997 132.929108 L 53.5508 120.418198 L 53.198399 119.7892 L 44.291599 120.102402 L 48.030499 126.669495 L 47.551201 128.233398 L 38.103001 132.884903 L 37.206402 132.925293 L 4.69811 120.414398 L 4 119.151001 L 10.80593 84.264709 L 11.9061 83.357262 L 47.297001 83.357262 L 48.248001 85.074371 L 42.402901 94.457596 L 40.912399 94.847397 L 33.2584 90.638504 L 15.079 99.668098 L 20.433001 118.694504 L 40.507301 117.988602 L 40.002899 117.1026 L 41.950401 115.990204 L 43.037498 117.899597 L 53.152401 117.5439 L 59.568001 84.267151 L 60.668598 83.357262 L 95.819298 83.357262 L 96.784798 85.050392 L 91.260002 94.433601 L 89.759003 94.849602 L 82.027603 90.639404 L 64.011597 99.736404 L 69.123299 116.9823 L 78.186096 116.663605 L 101.194702 112.080002 L 101.744904 93.028801 L 102.302597 92.090202 L 126.163002 78.215942 L 127.347 78.252304 L 156.466995 97.667198 L 158.442001 81.297821 L 159.593994 80.31041 L 179.996994 81.026062 L 194.279999 77 L 194.886993 79.161575 Z M 66.8088 117.063705 L 61.595699 99.475899 L 62.165699 98.153702 L 81.542603 88.369499 L 82.582703 88.385696 L 89.878799 92.358902 L 93.856796 85.602814 L 61.5938 85.602814 L 55.451401 117.463104 L 66.8088 117.063705 Z M 57.8433 119.6259 L 67.467903 119.287498 L 67.681 120.006599 L 68.974297 120.7883 L 78.445702 118.901505 L 89.673203 118.506599 L 94.293098 126.218796 L 87.284599 130.631195 L 57.8433 119.6259 Z M 41.761398 120.191399 L 19.632099 120.969604 L 18.513901 120.1521 L 12.66877 99.380699 L 13.2497 98.070198 L 32.786697 88.366196 L 33.8242 88.387901 L 41.062 92.367996 L 45.276299 85.602814 L 12.82924 85.602814 L 6.38085 118.656403 L 37.553501 130.653198 L 45.4925 126.744797 L 41.761398 120.191399 Z M 103.384003 113.933395 L 102.8983 130.754501 L 111.352997 130.754501 L 111.352997 121.852402 L 112.473999 120.729698 L 133.772003 120.729698 L 134.893005 121.8255 L 135.106995 130.754501 L 142.052002 130.754501 L 129.294998 112.148399 L 112.344002 112.148399 L 103.384003 113.933395 Z M 130.475006 109.902901 L 132.427994 109.902901 L 129.46701 93.659599 L 118.999001 93.166298 L 130.475006 109.902901 Z M 158.255997 101.557503 L 154.733994 130.754501 L 162.878006 130.754501 L 163.819 105.266296 L 158.255997 101.557503 Z M 166.106003 104.093399 L 172.123993 108.105804 L 171.082001 90.913002 L 166.565994 91.621399 L 166.106003 104.093399 Z M 174.634995 112.477501 L 175.742996 130.754501 L 184.259003 130.754501 L 184.707993 119.193604 L 174.634995 112.477501 Z M 186.996994 118.022301 L 194.600998 123.091705 L 192.466995 90.9142 L 188.022995 91.619904 L 186.996994 118.022301 Z M 197.139008 127.4814 L 197.356003 130.754501 L 202.048004 130.754501 L 197.139008 127.4814 Z"/>
</svg>
