<?xml version="1.0" encoding="UTF-8"?>
<!-- Generated by Pixelmator Pro 3.5.7 -->
<svg width="120" height="120" viewBox="0 0 120 120" xmlns="http://www.w3.org/2000/svg">
    <style>
        path { fill: #000; }
        @media (prefers-color-scheme: dark) { path { fill: #EEE; } }
        @keyframes morph { from { transform: rotate(0deg); } to { transform: rotate(360deg); } }
        #path1 { animation: morph 20s infinite linear; transform-origin: center; }
    </style>
    <path id="Path" fill="currentColor" stroke="none"
        d="M 11.889999 103.139999 L 11.889999 20.880005 L 29.890001 20.880005 L 29.890001 27 L 18.639999 27 L 18.639999 97.019997 L 29.890001 97.019997 L 29.890001 103.139999 L 11.889999 103.139999 Z" />
    <path id="path1" fill="currentColor" stroke="none"
        d="M 60.097 69.522003 L 48.834999 90 L 40.2915 84.675995 L 51.747505 65.016998 L 30 65.222 L 30 54.778152 L 51.747505 54.982948 L 40.2915 35.324249 L 48.834999 30 L 60.097 50.477798 L 70.971001 30 L 79.708496 35.324249 L 68.252495 54.982948 L 90 54.778152 L 90 65.222 L 68.252495 65.016998 L 79.708496 84.675995 L 70.971001 90 L 60.097 69.522003 Z" />
    <path id="path2" fill="currentColor" stroke="none"
        d="M 108.109993 103.139999 L 90.110001 103.139999 L 90.110001 97.019997 L 101.360001 97.019997 L 101.360001 27 L 90.110001 27 L 90.110001 20.880005 L 108.109993 20.880005 L 108.109993 103.139999 Z" />
</svg>