<svg width="204" height="58" viewBox="0 0 204 58" fill="none" xmlns="http://www.w3.org/2000/svg">
<path fill-rule="evenodd" clip-rule="evenodd" d="M191.887 3.16158L177.436 7.23507L177.094 7.27637L157.544 6.59067L155.557 23.0607L160.916 26.6335L161.36 14.6138L162.307 13.546L168.952 12.5035L170.245 13.5447L171.465 33.6664L181.81 40.5641L182.819 14.6116L183.763 13.5464L190.329 12.5038L191.623 13.5383L193.952 48.659L203.376 54.9426L202.755 57H193.307L192.188 55.9516L191.788 49.914L183.895 44.6517L183.457 55.9209L182.337 57H171.688L170.569 55.9453L169.294 34.9169L163.009 30.7262L162.079 55.9187L160.959 57H150.469L149.357 55.7425L153.166 24.1639L123.686 4.50874L100.968 17.7185L100.451 35.6306L109.015 33.9245L109.234 33.9029H124.755L112.873 16.5741L113.85 14.8169L127.462 15.4585L128.512 16.3784L131.875 34.824L130.772 36.1484H129.014L142.105 55.2416L141.181 57H131.013L129.892 55.9042L129.678 46.9752H110.595V55.8772L109.474 57H98.7444L97.6239 55.8448L98.1282 38.3828L87.6716 40.4659L88.2557 40.7837L93.7805 50.0065L93.4158 51.5347L85.0085 56.8278L84.02 56.9291L50.5508 44.4182L50.1984 43.7892L41.2916 44.1024L45.0305 50.6695L44.5512 52.2334L35.103 56.8849L34.2064 56.9253L1.69811 44.4144L1 43.151L7.80593 8.26471L8.9061 7.35726H44.297L45.248 9.07437L39.4029 18.4576L37.9124 18.8474L30.2584 14.6385L12.079 23.6681L17.433 42.6945L37.5073 41.9886L37.0029 41.1026L38.9504 39.9902L40.0375 41.8996L50.1524 41.5439L56.568 8.26715L57.6686 7.35726H92.8193L93.7848 9.05039L88.26 18.4336L86.759 18.8496L79.0276 14.6394L61.0116 23.7364L66.1233 40.9823L75.1861 40.6636L98.1947 36.08L98.7449 17.0288L99.3026 16.0902L123.163 2.21594L124.347 2.2523L153.467 21.6672L155.442 5.29782L156.594 4.31041L176.997 5.02607L191.28 1L191.887 3.16158ZM63.8088 41.0637L58.5957 23.4759L59.1657 22.1537L78.5426 12.3695L79.5827 12.3857L86.8788 16.3589L90.8568 9.60281H58.5938L52.4514 41.4631L63.8088 41.0637ZM54.8433 43.6259L64.4679 43.2875L64.681 44.0066L65.9743 44.7883L75.4457 42.9015L86.6732 42.5066L91.2931 50.2188L84.2846 54.6312L54.8433 43.6259ZM38.7614 44.1914L16.6321 44.9696L15.5139 44.1521L9.66877 23.3807L10.2497 22.0702L29.7867 12.3662L30.8242 12.3879L38.062 16.368L42.2763 9.60281H9.82924L3.38085 42.6564L34.5535 54.6532L42.4925 50.7448L38.7614 44.1914ZM100.384 37.9334L99.8983 54.7545H108.353V45.8524L109.474 44.7297H130.772L131.893 45.8255L132.107 54.7545H139.052L126.295 36.1484H109.344L100.384 37.9334ZM127.475 33.9029H129.428L126.467 17.6596L115.999 17.1663L127.475 33.9029ZM155.256 25.5575L151.734 54.7545H159.878L160.819 29.2663L155.256 25.5575ZM163.106 28.0934L169.124 32.1058L168.082 14.913L163.566 15.6214L163.106 28.0934ZM171.635 36.4775L172.743 54.7545H181.259L181.708 43.1936L171.635 36.4775ZM183.997 42.0223L191.601 47.0917L189.467 14.9142L185.023 15.6199L183.997 42.0223ZM194.139 51.4814L194.356 54.7545H199.048L194.139 51.4814Z" fill="black" stroke="black" stroke-linecap="round"/>
</svg>
