<svg width="40" height="20" viewBox="0 0 40 20" fill="none" xmlns="http://www.w3.org/2000/svg">
<path d="M3.978 18.628V2.176H7.578V3.4H5.328V17.404H7.578V18.628H3.978Z" fill="#121212"/>
<path d="M27.5614 11.5616C27.1072 13.0445 26.1968 14.3463 24.9599 15.2819C23.8739 16.0992 22.5816 16.5977 21.228 16.7214C19.8744 16.8451 18.5132 16.5891 17.297 15.9821C16.0808 15.3751 15.0579 14.4412 14.3431 13.2852C13.6282 12.1291 13.2497 10.7967 13.25 9.43749C13.2451 7.851 13.7609 6.30672 14.7182 5.04156C15.6537 3.80461 16.9555 2.89424 18.4384 2.43999C18.5361 2.4099 18.6402 2.40702 18.7395 2.43166C18.8387 2.4563 18.9294 2.50753 19.0017 2.57984C19.074 2.65215 19.1252 2.7428 19.1499 2.84205C19.1745 2.9413 19.1716 3.04538 19.1415 3.14312C18.8173 4.21569 18.7901 5.35613 19.0629 6.44293C19.3356 7.52973 19.8981 8.52216 20.6905 9.31448C21.4828 10.1068 22.4752 10.6693 23.562 10.9421C24.6488 11.2149 25.7893 11.1877 26.8618 10.8634C26.9596 10.8333 27.0637 10.8305 27.1629 10.8551C27.2621 10.8797 27.3528 10.931 27.4251 11.0033C27.4974 11.0756 27.5487 11.1662 27.5733 11.2655C27.5979 11.3647 27.595 11.4688 27.565 11.5666L27.5614 11.5616Z" fill="#121212"/>
<path d="M35.822 18.628H32.222V17.404H34.472V3.4H32.222V2.176H35.822V18.628Z" fill="#121212"/>
</svg>
